<svg width="20" height="19" viewBox="0 0 20 19" fill="none" xmlns="http://www.w3.org/2000/svg">
<g clip-path="url(#clip0_320_1612)">
<path d="M5.2612 14.5835C5.2612 15.4278 5.952 16.1186 6.79631 16.1186H12.9367C13.781 16.1186 14.4718 15.4278 14.4718 14.5835V6.90798C14.4718 6.06368 13.781 5.37288 12.9367 5.37288H6.79631C5.952 5.37288 5.2612 6.06368 5.2612 6.90798V14.5835ZM14.4718 3.07022H12.5529L12.008 2.52526C11.8698 2.3871 11.6703 2.30267 11.4707 2.30267H8.26233C8.06277 2.30267 7.8632 2.3871 7.72504 2.52526L7.18008 3.07022H5.2612C4.83905 3.07022 4.49365 3.41562 4.49365 3.83778C4.49365 4.25993 4.83905 4.60533 5.2612 4.60533H14.4718C14.894 4.60533 15.2394 4.25993 15.2394 3.83778C15.2394 3.41562 14.894 3.07022 14.4718 3.07022Z" fill="#E53E3E"/>
</g>
<defs>
<clipPath id="clip0_320_1612">
<rect width="18.4212" height="18.4212" fill="white" transform="translate(0.655762)"/>
</clipPath>
</defs>
</svg>
