<svg width="28" height="28" viewBox="0 0 28 28" fill="none" xmlns="http://www.w3.org/2000/svg">
<path d="M14 13C15.1867 13 16.3467 12.6481 17.3334 11.9888C18.3201 11.3295 19.0891 10.3925 19.5433 9.2961C19.9974 8.19975 20.1162 6.99335 19.8847 5.82946C19.6532 4.66558 19.0817 3.59648 18.2426 2.75736C17.4035 1.91825 16.3344 1.3468 15.1705 1.11529C14.0066 0.88378 12.8003 1.0026 11.7039 1.45673C10.6075 1.91085 9.67047 2.67989 9.01118 3.66658C8.35189 4.65328 8 5.81332 8 7C8.00159 8.59082 8.63424 10.116 9.75911 11.2409C10.884 12.3658 12.4092 12.9984 14 13ZM14 3C14.7911 3 15.5645 3.2346 16.2223 3.67412C16.8801 4.11365 17.3928 4.73837 17.6955 5.46927C17.9983 6.20017 18.0775 7.00444 17.9231 7.78036C17.7688 8.55629 17.3878 9.26902 16.8284 9.82843C16.269 10.3878 15.5563 10.7688 14.7804 10.9231C14.0044 11.0775 13.2002 10.9983 12.4693 10.6955C11.7384 10.3928 11.1136 9.88008 10.6741 9.22228C10.2346 8.56449 10 7.79113 10 7C10 5.93914 10.4214 4.92172 11.1716 4.17158C11.9217 3.42143 12.9391 3 14 3Z" fill="#EEEEEE"/>
<path d="M24.976 22.1421C24.0344 20.0168 22.496 18.2106 20.5476 16.9427C18.5992 15.6749 16.3246 15 14 15C11.6755 15 9.40087 15.6749 7.45247 16.9427C5.50407 18.2106 3.96566 20.0168 3.02404 22.1421C2.78818 22.6702 2.68858 23.249 2.73436 23.8255C2.78013 24.4021 2.96981 24.9579 3.28604 25.4421C3.59705 25.9215 4.02323 26.3152 4.52564 26.5874C5.02805 26.8595 5.59065 27.0014 6.16204 27.0001H21.838C22.4096 27.0012 22.9723 26.859 23.4748 26.5865C23.9772 26.314 24.4033 25.9198 24.714 25.4401C25.0299 24.9561 25.2194 24.4007 25.2652 23.8245C25.3109 23.2484 25.2115 22.6699 24.976 22.1421ZM23.038 24.3491C22.9097 24.5506 22.7322 24.716 22.5223 24.8299C22.3123 24.9438 22.0769 25.0024 21.838 25.0001H6.16204C5.92321 25.0024 5.68773 24.9438 5.47779 24.8299C5.26785 24.716 5.09036 24.5506 4.96204 24.3491C4.82643 24.1443 4.74526 23.9082 4.72619 23.6633C4.70711 23.4183 4.75077 23.1725 4.85304 22.9491C5.63628 21.1764 6.9178 19.6694 8.54171 18.6115C10.1656 17.5537 12.062 16.9905 14 16.9905C15.9381 16.9905 17.8345 17.5537 19.4584 18.6115C21.0823 19.6694 22.3638 21.1764 23.147 22.9491C23.2493 23.1725 23.293 23.4183 23.2739 23.6633C23.2548 23.9082 23.1736 24.1443 23.038 24.3491Z" fill="#EEEEEE"/>
</svg>
