<svg width="28" height="28" viewBox="0 0 28 28" fill="none" xmlns="http://www.w3.org/2000/svg">
<path d="M16 1C15.7348 1 15.4804 1.10536 15.2929 1.29289C15.1054 1.48043 15 1.73478 15 2V12C15 12.2652 15.1054 12.5196 15.2929 12.7071C15.4804 12.8946 15.7348 13 16 13H26C26.2652 13 26.5196 12.8946 26.7071 12.7071C26.8946 12.5196 27 12.2652 27 12C26.9966 9.08368 25.8365 6.28778 23.7744 4.22563C21.7122 2.16347 18.9163 1.00344 16 1ZM17 11V3.056C19.0278 3.28581 20.9177 4.19661 22.3608 5.63955C23.8039 7.08249 24.7149 8.97225 24.945 11H17Z" fill="#EEEEEE"/>
<path d="M22 15.077H13V6C13 5.73478 12.8946 5.48043 12.7071 5.29289C12.5196 5.10536 12.2652 5 12 5C10.5286 4.9994 9.07196 5.29401 7.71643 5.86641C6.36089 6.4388 5.13397 7.27734 4.1083 8.33239C3.08263 9.38743 2.27905 10.6375 1.74515 12.0087C1.21124 13.3798 0.957858 14.8442 0.999995 16.315C1.11136 19.1101 2.27042 21.761 4.24677 23.7407C6.22313 25.7204 8.87206 26.8839 11.667 27H12.004C14.906 26.999 17.6901 25.8513 19.7497 23.8069C21.8093 21.7624 22.9776 18.9869 23 16.085C23.0011 15.953 22.976 15.8221 22.9262 15.6999C22.8764 15.5776 22.8029 15.4664 22.7099 15.3727C22.617 15.279 22.5064 15.2046 22.3845 15.1539C22.2627 15.1031 22.132 15.077 22 15.077ZM18.24 22.483C17.3789 23.3185 16.3584 23.972 15.2392 24.4045C14.12 24.8369 12.9252 25.0395 11.726 25C9.43956 24.9051 7.27257 23.9533 5.65581 22.3337C4.03906 20.7142 3.09096 18.5456 2.99999 16.259C2.93592 14.0014 3.72297 11.8023 5.20492 10.0981C6.68688 8.39382 8.75541 7.30903 11 7.059V16.081C11 16.3462 11.1054 16.6006 11.2929 16.7881C11.4804 16.9756 11.7348 17.081 12 17.081H20.933C20.69 19.1398 19.7379 21.0498 18.24 22.483Z" fill="#EEEEEE"/>
</svg>
