<svg width="28" height="28" viewBox="0 0 28 28" fill="none" xmlns="http://www.w3.org/2000/svg">
<mask id="mask0_280_4952" style="mask-type:alpha" maskUnits="userSpaceOnUse" x="0" y="0" width="28" height="28">
<rect width="28" height="28" fill="#D9D9D9"/>
</mask>
<g mask="url(#mask0_280_4952)">
<path d="M10.5001 25.6667V24.5C10.5001 23.8778 10.7334 23.3576 11.2001 22.9396C11.6667 22.5215 12.2112 22.2639 12.8334 22.1667V13.825C12.4056 13.6694 12.0313 13.4458 11.7105 13.1542C11.3896 12.8625 11.1223 12.5222 10.9084 12.1333L8.69173 12.7167C7.99173 12.8722 7.32576 12.8139 6.69382 12.5417C6.06187 12.2694 5.6584 11.8028 5.4834 11.1417L10.5584 9.85834C10.714 9.06111 11.0834 8.4 11.6667 7.875C12.2501 7.35 12.9501 7.05834 13.7667 7L14.4667 4.375C14.6612 3.69445 15.0355 3.15486 15.5896 2.75625C16.1438 2.35764 16.7612 2.23611 17.4417 2.39167L15.9834 7.64167C16.4695 7.95278 16.8438 8.36111 17.1063 8.86667C17.3688 9.37222 17.5001 9.91667 17.5001 10.5C17.5001 10.7528 17.4709 11.0007 17.4126 11.2438C17.3542 11.4868 17.2862 11.725 17.2084 11.9583L18.7834 13.5917C19.2695 14.0972 19.5563 14.6903 19.6438 15.3708C19.7313 16.0514 19.5417 16.625 19.0751 17.0917L15.5751 13.5917C15.5167 13.65 15.4535 13.6938 15.3855 13.7229C15.3174 13.7521 15.2445 13.7861 15.1667 13.825V22.1667C15.789 22.2639 16.3334 22.5215 16.8001 22.9396C17.2667 23.3576 17.5001 23.8778 17.5001 24.5V25.6667H10.5001ZM14.0001 12.25C14.4862 12.25 14.8994 12.0799 15.2396 11.7396C15.5799 11.3993 15.7501 10.9861 15.7501 10.5C15.7501 10.0139 15.5799 9.6007 15.2396 9.26042C14.8994 8.92014 14.4862 8.75 14.0001 8.75C13.514 8.75 13.1008 8.92014 12.7605 9.26042C12.4202 9.6007 12.2501 10.0139 12.2501 10.5C12.2501 10.9861 12.4202 11.3993 12.7605 11.7396C13.1008 12.0799 13.514 12.25 14.0001 12.25Z" fill="#EEEEEE"/>
</g>
</svg>
