<svg width="28" height="28" viewBox="0 0 28 28" fill="none" xmlns="http://www.w3.org/2000/svg">
<path d="M24.035 10.0001H23.158C22.884 9.36642 22.5445 8.76314 22.145 8.20007L22.593 7.45307C22.9974 6.77881 23.1176 5.97157 22.9271 5.20876C22.7365 4.44596 22.2509 3.79 21.577 3.38507L19.8 2.32007C19.1256 1.91678 18.3189 1.79726 17.5566 1.9877C16.7942 2.17814 16.1385 2.66302 15.733 3.33607L15.286 4.08307C14.4322 3.97307 13.5678 3.97307 12.714 4.08307L12.267 3.33607C11.8615 2.66302 11.2058 2.17814 10.4434 1.9877C9.68111 1.79726 8.87437 1.91678 8.2 2.32007L6.423 3.38507C5.74905 3.79 5.26346 4.44596 5.07294 5.20876C4.88243 5.97157 5.00258 6.77881 5.407 7.45307L5.855 8.19907C5.45574 8.76262 5.11625 9.36621 4.842 10.0001H3.964C3.17805 10.0011 2.42461 10.3139 1.86895 10.8697C1.31329 11.4256 1.00079 12.1791 1 12.9651V15.0351C1.00079 15.821 1.31329 16.5746 1.86895 17.1304C2.42461 17.6863 3.17805 17.999 3.964 18.0001H4.842C5.11631 18.6336 5.4558 19.2368 5.855 19.8001L5.407 20.5461C5.00258 21.2203 4.88243 22.0276 5.07294 22.7904C5.26346 23.5532 5.74905 24.2091 6.423 24.6141L8.2 25.6801C8.87417 26.0842 9.68117 26.2041 10.4437 26.0136C11.2063 25.8231 11.8621 25.3377 12.267 24.6641L12.714 23.9171C13.5678 24.0271 14.4322 24.0271 15.286 23.9171L15.733 24.6641C16.1385 25.3371 16.7942 25.822 17.5566 26.0124C18.3189 26.2029 19.1256 26.0834 19.8 25.6801L21.576 24.6151C22.2499 24.2101 22.7355 23.5542 22.9261 22.7914C23.1166 22.0286 22.9964 21.2213 22.592 20.5471L22.144 19.8001C22.5438 19.237 22.8836 18.6338 23.158 18.0001H24.035C24.8211 17.9993 25.5748 17.6866 26.1307 17.1308C26.6866 16.5749 26.9992 15.8212 27 15.0351V12.9651C26.9992 12.1789 26.6866 11.4252 26.1307 10.8694C25.5748 10.3135 24.8211 10.0009 24.035 10.0001ZM25 15.0351C24.9997 15.2909 24.898 15.5362 24.7171 15.7171C24.5361 15.898 24.2909 15.9998 24.035 16.0001H22.477C22.2704 16.0002 22.069 16.0643 21.9003 16.1835C21.7316 16.3028 21.604 16.4714 21.535 16.6661C21.2259 17.5516 20.7628 18.3756 20.167 19.1001C20.0353 19.2596 19.9562 19.4561 19.9408 19.6624C19.9254 19.8687 19.9744 20.0747 20.081 20.2521L20.881 21.5821C20.9463 21.6906 20.9896 21.811 21.0083 21.9363C21.027 22.0616 21.0208 22.1894 20.99 22.3123C20.9593 22.4352 20.9046 22.5508 20.8291 22.6525C20.7536 22.7542 20.6587 22.8401 20.55 22.9051L18.775 23.9701C18.6663 24.0353 18.5459 24.0784 18.4205 24.0971C18.2952 24.1157 18.1674 24.1095 18.0444 24.0788C17.9215 24.048 17.8058 23.9934 17.704 23.9179C17.6022 23.8425 17.5162 23.7477 17.451 23.6391L16.651 22.3111C16.5466 22.133 16.3892 21.9918 16.2009 21.9074C16.0125 21.823 15.8024 21.7994 15.6 21.8401C14.5472 22.0521 13.4628 22.0521 12.41 21.8401C12.2074 21.7974 11.9964 21.8194 11.807 21.903C11.6175 21.9866 11.4591 22.1276 11.354 22.3061L10.554 23.6341C10.4889 23.7427 10.403 23.8374 10.3013 23.9129C10.1996 23.9883 10.084 24.043 9.96109 24.0737C9.83822 24.1044 9.71051 24.1107 9.58523 24.092C9.45996 24.0734 9.33959 24.0302 9.231 23.9651L7.453 22.9001C7.34426 22.8351 7.24942 22.7492 7.17391 22.6475C7.0984 22.5458 7.04371 22.4301 7.01296 22.3072C6.98221 22.1843 6.97602 22.0566 6.99473 21.9313C7.01344 21.806 7.05669 21.6856 7.122 21.5771L7.922 20.2471C8.02706 20.07 8.07489 19.8648 8.05896 19.6595C8.04303 19.4542 7.96412 19.2588 7.833 19.1001C7.23797 18.3775 6.7752 17.5556 6.466 16.6721C6.39795 16.4761 6.27062 16.3061 6.10166 16.1857C5.9327 16.0653 5.73047 16.0004 5.523 16.0001H3.964C3.70832 15.9995 3.46328 15.8977 3.28258 15.7168C3.10188 15.5359 3.00026 15.2907 3 15.0351V12.9651C3.00026 12.7094 3.10188 12.4642 3.28258 12.2834C3.46328 12.1025 3.70832 12.0006 3.964 12.0001H5.523C5.72987 12.0001 5.93165 11.9359 6.10054 11.8165C6.26943 11.697 6.39711 11.5281 6.466 11.3331C6.77466 10.4478 7.23746 9.62413 7.833 8.90007C7.96475 8.74054 8.04377 8.54407 8.05917 8.33774C8.07458 8.13142 8.0256 7.92539 7.919 7.74807L7.119 6.41807C6.98894 6.1989 6.95106 5.93711 7.01366 5.69006C7.07627 5.44301 7.23425 5.23085 7.453 5.10007L9.228 4.03507C9.44766 3.90419 9.71019 3.86554 9.95825 3.92755C10.2063 3.98957 10.4198 4.14722 10.552 4.36607L11.352 5.69407C11.4576 5.87199 11.6161 6.01252 11.8054 6.09605C11.9947 6.17959 12.2054 6.20197 12.408 6.16007C13.4608 5.94808 14.5452 5.94808 15.598 6.16007C15.8006 6.20106 16.0109 6.17826 16.2 6.09481C16.3891 6.01136 16.5477 5.87136 16.654 5.69407L17.454 4.36607C17.586 4.14728 17.7993 3.98966 18.0472 3.92763C18.2951 3.86561 18.5575 3.90424 18.777 4.03507L20.547 5.10007C20.6557 5.16508 20.7506 5.25091 20.8261 5.35263C20.9016 5.45436 20.9563 5.56998 20.987 5.69288C21.0178 5.81578 21.024 5.94354 21.0053 6.06884C20.9866 6.19414 20.9433 6.31452 20.878 6.42307L20.078 7.75307C19.9729 7.93016 19.9251 8.13536 19.941 8.34065C19.957 8.54594 20.0359 8.74131 20.167 8.90007C20.7622 9.62302 21.2253 10.4453 21.535 11.3291C21.604 11.5238 21.7316 11.6923 21.9003 11.8116C22.069 11.9309 22.2704 11.995 22.477 11.9951H24.035C24.2909 11.9953 24.5361 12.0971 24.7171 12.278C24.898 12.4589 24.9997 12.7042 25 12.9601V15.0351Z" fill="#EEEEEE"/>
<path d="M14 9C13.0111 9 12.0444 9.29324 11.2222 9.84265C10.3999 10.3921 9.75904 11.1729 9.3806 12.0866C9.00217 13.0002 8.90315 14.0055 9.09608 14.9754C9.289 15.9453 9.76521 16.8363 10.4645 17.5355C11.1637 18.2348 12.0546 18.711 13.0246 18.9039C13.9945 19.0968 14.9998 18.9978 15.9134 18.6194C16.8271 18.2409 17.6079 17.6001 18.1574 16.7778C18.7068 15.9556 19 14.9889 19 14C18.9984 12.6744 18.4711 11.4036 17.5338 10.4662C16.5964 9.52888 15.3256 9.00159 14 9ZM14 17C13.4067 17 12.8266 16.824 12.3333 16.4944C11.8399 16.1648 11.4554 15.6962 11.2284 15.148C11.0013 14.5999 10.9419 13.9967 11.0576 13.4147C11.1734 12.8328 11.4591 12.2982 11.8787 11.8787C12.2982 11.4591 12.8328 11.1734 13.4147 11.0576C13.9967 10.9419 14.5999 11.0013 15.1481 11.2284C15.6962 11.4554 16.1648 11.8399 16.4944 12.3333C16.8241 12.8266 17 13.4066 17 14C17 14.7956 16.6839 15.5587 16.1213 16.1213C15.5587 16.6839 14.7957 17 14 17Z" fill="#EEEEEE"/>
</svg>
