<svg width="28" height="28" viewBox="0 0 28 28" fill="none" xmlns="http://www.w3.org/2000/svg">
<path d="M10.112 1H3.888C3.12213 1.00079 2.38786 1.30546 1.8464 1.84711C1.30494 2.38876 1.00053 3.12313 1 3.889V10.111C1.00053 10.8769 1.30494 11.6112 1.8464 12.1529C2.38786 12.6945 3.12213 12.9992 3.888 13H10.112C10.8779 12.9992 11.6121 12.6945 12.1536 12.1529C12.6951 11.6112 12.9995 10.8769 13 10.111V3.889C12.9995 3.12313 12.6951 2.38876 12.1536 1.84711C11.6121 1.30546 10.8779 1.00079 10.112 1ZM11 10.111C11 10.3466 10.9065 10.5726 10.74 10.7393C10.5735 10.906 10.3476 10.9997 10.112 11H3.888C3.6524 10.9997 3.42653 10.906 3.26003 10.7393C3.09352 10.5726 3 10.3466 3 10.111V3.889C3 3.6534 3.09352 3.42743 3.26003 3.26074C3.42653 3.09404 3.6524 3.00027 3.888 3H10.112C10.3476 3.00027 10.5735 3.09404 10.74 3.26074C10.9065 3.42743 11 3.6534 11 3.889V10.111Z" fill="#F3F8F7"/>
<path d="M24.112 1H17.888C17.1221 1.00079 16.3879 1.30546 15.8464 1.84711C15.3049 2.38876 15.0005 3.12313 15 3.889V10.111C15.0005 10.8769 15.3049 11.6112 15.8464 12.1529C16.3879 12.6945 17.1221 12.9992 17.888 13H24.112C24.8779 12.9992 25.6121 12.6945 26.1536 12.1529C26.6951 11.6112 26.9995 10.8769 27 10.111V3.889C26.9995 3.12313 26.6951 2.38876 26.1536 1.84711C25.6121 1.30546 24.8779 1.00079 24.112 1ZM25 10.111C25 10.3466 24.9065 10.5726 24.74 10.7393C24.5735 10.906 24.3476 10.9997 24.112 11H17.888C17.6524 10.9997 17.4265 10.906 17.26 10.7393C17.0935 10.5726 17 10.3466 17 10.111V3.889C17 3.6534 17.0935 3.42743 17.26 3.26074C17.4265 3.09404 17.6524 3.00027 17.888 3H24.112C24.3476 3.00027 24.5735 3.09404 24.74 3.26074C24.9065 3.42743 25 3.6534 25 3.889V10.111Z" fill="#F3F8F7"/>
<path d="M24.112 15H17.888C17.1221 15.0008 16.3879 15.3055 15.8464 15.8471C15.3049 16.3888 15.0005 17.1231 15 17.889V24.111C15.0005 24.8769 15.3049 25.6112 15.8464 26.1529C16.3879 26.6945 17.1221 26.9992 17.888 27H24.112C24.8779 26.9992 25.6121 26.6945 26.1536 26.1529C26.6951 25.6112 26.9995 24.8769 27 24.111V17.889C26.9995 17.1231 26.6951 16.3888 26.1536 15.8471C25.6121 15.3055 24.8779 15.0008 24.112 15ZM25 24.111C25 24.3466 24.9065 24.5726 24.74 24.7393C24.5735 24.906 24.3476 24.9997 24.112 25H17.888C17.6524 24.9997 17.4265 24.906 17.26 24.7393C17.0935 24.5726 17 24.3466 17 24.111V17.889C17 17.6534 17.0935 17.4274 17.26 17.2607C17.4265 17.094 17.6524 17.0003 17.888 17H24.112C24.3476 17.0003 24.5735 17.094 24.74 17.2607C24.9065 17.4274 25 17.6534 25 17.889V24.111Z" fill="#F3F8F7"/>
<path d="M10.112 15H3.888C3.12213 15.0008 2.38786 15.3055 1.8464 15.8471C1.30494 16.3888 1.00053 17.1231 1 17.889V24.111C1.00053 24.8769 1.30494 25.6112 1.8464 26.1529C2.38786 26.6945 3.12213 26.9992 3.888 27H10.112C10.8779 26.9992 11.6121 26.6945 12.1536 26.1529C12.6951 25.6112 12.9995 24.8769 13 24.111V17.889C12.9995 17.1231 12.6951 16.3888 12.1536 15.8471C11.6121 15.3055 10.8779 15.0008 10.112 15ZM11 24.111C11 24.3466 10.9065 24.5726 10.74 24.7393C10.5735 24.906 10.3476 24.9997 10.112 25H3.888C3.6524 24.9997 3.42653 24.906 3.26003 24.7393C3.09352 24.5726 3 24.3466 3 24.111V17.889C3 17.6534 3.09352 17.4274 3.26003 17.2607C3.42653 17.094 3.6524 17.0003 3.888 17H10.112C10.3476 17.0003 10.5735 17.094 10.74 17.2607C10.9065 17.4274 11 17.6534 11 17.889V24.111Z" fill="#F3F8F7"/>
</svg>
