<svg width="28" height="28" viewBox="0 0 28 28" fill="none" xmlns="http://www.w3.org/2000/svg">
<path d="M23.306 2H4.694C3.71495 2.00159 2.77644 2.39115 2.08405 3.08335C1.39167 3.77555 1.00185 4.71395 1 5.693V25C1.00013 25.19 1.05437 25.376 1.15638 25.5363C1.25839 25.6966 1.40394 25.8245 1.576 25.905C1.70854 25.9677 1.85337 26.0002 2 26C2.23378 26.0002 2.46023 25.9184 2.64 25.769L8.362 21H23.306C24.285 20.9984 25.2236 20.6089 25.9159 19.9167C26.6083 19.2245 26.9981 18.2861 27 17.307V5.693C26.9981 4.71395 26.6083 3.77555 25.9159 3.08335C25.2236 2.39115 24.285 2.00159 23.306 2ZM25 17.307C24.9982 17.7556 24.8191 18.1853 24.5017 18.5024C24.1844 18.8196 23.7546 18.9984 23.306 19H8C7.76622 18.9998 7.53977 19.0816 7.36 19.231L3 22.865V5.693C3.00184 5.24438 3.18094 4.81468 3.49826 4.49755C3.81558 4.18042 4.24538 4.00158 4.694 4H23.306C23.7546 4.00158 24.1844 4.18042 24.5017 4.49755C24.8191 4.81468 24.9982 5.24438 25 5.693V17.307Z" fill="#EEEEEE"/>
<path d="M20 8H8C7.73478 8 7.48043 8.10536 7.29289 8.29289C7.10536 8.48043 7 8.73478 7 9C7 9.26522 7.10536 9.51957 7.29289 9.70711C7.48043 9.89465 7.73478 10 8 10H20C20.2652 10 20.5196 9.89465 20.7071 9.70711C20.8946 9.51957 21 9.26522 21 9C21 8.73478 20.8946 8.48043 20.7071 8.29289C20.5196 8.10536 20.2652 8 20 8Z" fill="#EEEEEE"/>
<path d="M14 13H8C7.73478 13 7.48043 13.1054 7.29289 13.2929C7.10536 13.4804 7 13.7348 7 14C7 14.2652 7.10536 14.5196 7.29289 14.7071C7.48043 14.8946 7.73478 15 8 15H14C14.2652 15 14.5196 14.8946 14.7071 14.7071C14.8947 14.5196 15 14.2652 15 14C15 13.7348 14.8947 13.4804 14.7071 13.2929C14.5196 13.1054 14.2652 13 14 13Z" fill="#EEEEEE"/>
</svg>
