<svg width="20" height="19" viewBox="0 0 20 19" fill="none" xmlns="http://www.w3.org/2000/svg">
<path d="M16.6492 6.89697H16.0746C15.8951 6.48182 15.6726 6.08658 15.4109 5.71768L15.7044 5.22828C15.9694 4.78654 16.0481 4.25767 15.9233 3.75791C15.7985 3.25815 15.4803 2.82839 15.0388 2.5631L13.8746 1.86536C13.4328 1.60114 12.9042 1.52283 12.4048 1.6476C11.9053 1.77237 11.4757 2.09004 11.2101 2.531L10.9172 3.0204C10.3578 2.94833 9.79151 2.94833 9.23214 3.0204L8.93928 2.531C8.67363 2.09004 8.24401 1.77237 7.74456 1.6476C7.24511 1.52283 6.71657 1.60114 6.27475 1.86536L5.11054 2.5631C4.669 2.82839 4.35086 3.25815 4.22604 3.75791C4.10122 4.25767 4.17994 4.78654 4.4449 5.22828L4.73841 5.71703C4.47683 6.08624 4.25441 6.48169 4.07473 6.89697H3.49951C2.98458 6.89766 2.49096 7.10257 2.12692 7.46673C1.76287 7.8309 1.55814 8.32459 1.55762 8.83951V10.1957C1.55814 10.7106 1.76287 11.2043 2.12692 11.5685C2.49096 11.9326 2.98458 12.1375 3.49951 12.1382H4.07473C4.25445 12.5533 4.47687 12.9485 4.73841 13.3175L4.4449 13.8063C4.17994 14.248 4.10122 14.7769 4.22604 15.2766C4.35086 15.7764 4.669 16.2061 5.11054 16.4714L6.27475 17.1698C6.71644 17.4346 7.24515 17.5132 7.74476 17.3884C8.24436 17.2636 8.67399 16.9456 8.93928 16.5042L9.23214 16.0148C9.79151 16.0869 10.3578 16.0869 10.9172 16.0148L11.2101 16.5042C11.4757 16.9452 11.9053 17.2628 12.4048 17.3876C12.9042 17.5124 13.4328 17.4341 13.8746 17.1698L15.0381 16.4721C15.4797 16.2068 15.7978 15.777 15.9226 15.2773C16.0475 14.7775 15.9687 14.2487 15.7038 13.8069L15.4103 13.3175C15.6722 12.9486 15.8949 12.5534 16.0746 12.1382H16.6492C17.1642 12.1377 17.658 11.9329 18.0222 11.5687C18.3864 11.2045 18.5912 10.7107 18.5917 10.1957V8.83951C18.5912 8.32448 18.3864 7.83068 18.0222 7.4665C17.658 7.10232 17.1642 6.89749 16.6492 6.89697ZM17.2814 10.1957C17.2812 10.3633 17.2146 10.524 17.096 10.6425C16.9775 10.7611 16.8168 10.8277 16.6492 10.8279H15.6284C15.4931 10.828 15.3611 10.87 15.2506 10.9481C15.1401 11.0262 15.0565 11.1367 15.0113 11.2642C14.8088 11.8444 14.5053 12.3843 14.115 12.8589C14.0287 12.9634 13.9769 13.0921 13.9669 13.2273C13.9568 13.3625 13.9888 13.4975 14.0587 13.6136L14.5828 14.485C14.6256 14.5561 14.6539 14.635 14.6662 14.7171C14.6785 14.7992 14.6744 14.8829 14.6543 14.9634C14.6341 15.0439 14.5983 15.1197 14.5488 15.1863C14.4993 15.253 14.4372 15.3092 14.366 15.3518L13.203 16.0495C13.1319 16.0922 13.0529 16.1205 12.9708 16.1327C12.8887 16.145 12.805 16.1409 12.7244 16.1207C12.6439 16.1006 12.5681 16.0648 12.5014 16.0154C12.4347 15.9659 12.3783 15.9039 12.3356 15.8327L11.8115 14.9626C11.7431 14.8459 11.64 14.7535 11.5166 14.6982C11.3931 14.6428 11.2555 14.6274 11.1229 14.654C10.4332 14.7929 9.7227 14.7929 9.03297 14.654C8.9002 14.6261 8.76201 14.6405 8.63789 14.6953C8.51376 14.7501 8.40996 14.8424 8.34112 14.9593L7.817 15.8294C7.77434 15.9006 7.71808 15.9626 7.65143 16.0121C7.58478 16.0615 7.50904 16.0973 7.42854 16.1174C7.34805 16.1376 7.26437 16.1416 7.1823 16.1294C7.10023 16.1172 7.02137 16.0889 6.95022 16.0462L5.78535 15.3485C5.71411 15.3059 5.65198 15.2497 5.60251 15.183C5.55303 15.1164 5.5172 15.0406 5.49706 14.9601C5.47691 14.8796 5.47285 14.7959 5.48511 14.7138C5.49737 14.6317 5.5257 14.5528 5.56849 14.4817L6.09262 13.6104C6.16145 13.4943 6.19279 13.3599 6.18235 13.2254C6.17191 13.0909 6.12021 12.9629 6.03431 12.8589C5.64447 12.3855 5.34128 11.847 5.13871 11.2682C5.09413 11.1398 5.01071 11.0284 4.90001 10.9495C4.78931 10.8706 4.65682 10.8281 4.5209 10.8279H3.49951C3.332 10.8276 3.17145 10.7608 3.05307 10.6423C2.93468 10.5238 2.86811 10.3632 2.86793 10.1957V8.83951C2.86811 8.672 2.93468 8.51139 3.05307 8.39288C3.17145 8.27437 3.332 8.20763 3.49951 8.20728H4.5209C4.65643 8.20729 4.78863 8.16527 4.89927 8.08701C5.00992 8.00874 5.09358 7.89809 5.13871 7.77029C5.34093 7.19031 5.64414 6.65067 6.03431 6.17629C6.12063 6.07178 6.1724 5.94306 6.18249 5.80788C6.19258 5.67271 6.1605 5.53773 6.09065 5.42155L5.56653 4.55019C5.48132 4.4066 5.4565 4.23509 5.49752 4.07323C5.53853 3.91137 5.64204 3.77238 5.78535 3.6867L6.94826 2.98895C7.09217 2.9032 7.26417 2.87788 7.42669 2.91851C7.58921 2.95914 7.72905 3.06243 7.81569 3.20581L8.33981 4.07586C8.40901 4.19242 8.51286 4.28449 8.63688 4.33922C8.7609 4.39395 8.89891 4.40861 9.03166 4.38116C9.72139 4.24228 10.4319 4.24228 11.1216 4.38116C11.2543 4.40802 11.3921 4.39308 11.516 4.33841C11.6399 4.28373 11.7438 4.19201 11.8135 4.07586L12.3376 3.20581C12.4241 3.06247 12.5638 2.9592 12.7262 2.91856C12.8886 2.87793 13.0605 2.90324 13.2044 2.98895L14.364 3.6867C14.4352 3.72929 14.4974 3.78552 14.5468 3.85216C14.5963 3.91881 14.6321 3.99456 14.6523 4.07508C14.6724 4.1556 14.6765 4.2393 14.6642 4.32139C14.652 4.40348 14.6236 4.48235 14.5808 4.55347L14.0567 5.42483C13.9879 5.54085 13.9566 5.67529 13.967 5.80979C13.9774 5.94428 14.0291 6.07228 14.115 6.17629C14.505 6.64994 14.8084 7.18865 15.0113 7.76767C15.0565 7.89524 15.1401 8.00568 15.2506 8.08381C15.3611 8.16194 15.4931 8.20393 15.6284 8.20401H16.6492C16.8168 8.20418 16.9775 8.27085 17.096 8.38937C17.2146 8.5079 17.2812 8.66861 17.2814 8.83623V10.1957Z" fill="#FF9F34"/>
<path d="M10.0746 6.24182C9.42673 6.24182 8.79339 6.43394 8.25469 6.79389C7.71599 7.15384 7.29612 7.66545 7.04818 8.26402C6.80025 8.86259 6.73538 9.52124 6.86177 10.1567C6.98817 10.7921 7.30016 11.3758 7.75829 11.8339C8.21641 12.2921 8.8001 12.6041 9.43554 12.7304C10.071 12.8568 10.7296 12.792 11.3282 12.544C11.9268 12.2961 12.4384 11.8762 12.7983 11.3375C13.1583 10.7988 13.3504 10.1655 13.3504 9.51761C13.3494 8.64913 13.0039 7.81653 12.3898 7.20243C11.7757 6.58832 10.9431 6.24286 10.0746 6.24182ZM10.0746 11.4831C9.68589 11.4831 9.30588 11.3678 8.98266 11.1518C8.65944 10.9359 8.40752 10.6289 8.25876 10.2698C8.11 9.91062 8.07107 9.51543 8.14691 9.13416C8.22275 8.7529 8.40994 8.40268 8.68482 8.12781C8.9597 7.85293 9.30991 7.66574 9.69117 7.5899C10.0724 7.51406 10.4676 7.55299 10.8268 7.70175C11.1859 7.85051 11.4929 8.10243 11.7089 8.42565C11.9248 8.74887 12.0401 9.12887 12.0401 9.51761C12.0401 10.0389 11.833 10.5388 11.4644 10.9074C11.0958 11.276 10.5959 11.4831 10.0746 11.4831Z" fill="#FF9F34"/>
</svg>
